<svg xmlns="http://www.w3.org/2000/svg" width="32" height="32" viewBox="0 0 32 32">
  <defs>
    <linearGradient id="grad1" x1="0%" y1="0%" x2="100%" y2="100%">
      <stop offset="0%" style="stop-color:#1a365d;stop-opacity:1" />
      <stop offset="100%" style="stop-color:#2563eb;stop-opacity:1" />
    </linearGradient>
    <linearGradient id="grad2" x1="0%" y1="0%" x2="100%" y2="100%">
      <stop offset="0%" style="stop-color:#fbbf24;stop-opacity:1" />
      <stop offset="100%" style="stop-color:#d97706;stop-opacity:1" />
    </linearGradient>
  </defs>
  
  <!-- Fondo circular -->
  <circle cx="16" cy="16" r="16" fill="url(#grad1)"/>
  
  <!-- Letra S -->
  <path d="M12 10 C16 10, 18 12, 18 14 C18 16, 16 17, 14 17 C12 17, 10 16, 10 14" 
        stroke="url(#grad2)" stroke-width="2.5" fill="none"/>
  <path d="M14 17 C10 17, 8 19, 8 21 C8 23, 10 24, 14 24 C18 24, 20 22, 20 20" 
        stroke="url(#grad2)" stroke-width="2.5" fill="none"/>
  
  <!-- Letra C -->
  <path d="M24 12 C20 12, 18 14, 18 16 C18 18, 20 20, 24 20" 
        stroke="white" stroke-width="2.5" fill="none"/>
        
  <!-- Estrella -->
  <path d="M24 8 L25 10 L27 10.5 L25.5 12 L26 14 L24 13 L22 14 L22.5 12 L21 10.5 L23 10 Z" 
        fill="url(#grad2)"/>
</svg>